# xmcd
#
# Track frame offsets: 
#        150
#        29817
#        56528
#        79697
#        124144
#        155681
#        180613
#        197428
#        224856
#        251624
#        271553
#
# Disc length: 3994 seconds
#
# Revision: 0
# Processed by: cddbd v1.5.2PL0 Copyright (c) Steve Scherf et al.
# Submitted via: ExactAudioCopyFreeDBPlugin 1.0
#
DISCID=9d0f980b
DTITLE=Jimmy Smith - The Best of Jimmy Smith, 1956-1962 [Real Gone Jaz
DTITLE=z]
DYEAR=2016
DGENRE=Rhythm and Blues
TTITLE0=See See Rider
TTITLE1=Messin' Around
TTITLE2=Motorin' Along
TTITLE3=Midnight Special
TTITLE4=One O'Clock Jump
TTITLE5=Squeeze Me
TTITLE6=Ain't Misbehavin
TTITLE7=I've Found a New Baby
TTITLE8=Walk on the Wild Side
TTITLE9=In a Mellotone
TTITLE10=Bashin'
EXTD=
EXTT0=
EXTT1=
EXTT2=
EXTT3=
EXTT4=
EXTT5=
EXTT6=
EXTT7=
EXTT8=
EXTT9=
EXTT10=
PLAYORDER=
